<?xml version="1.0" standalone="no"?>
<!DOCTYPE svg PUBLIC "-//W3C//DTD SVG 20010904//EN"
 "http://www.w3.org/TR/2001/REC-SVG-20010904/DTD/svg10.dtd">
<svg version="1.0" xmlns="http://www.w3.org/2000/svg"
 width="127.000000pt" height="37.000000pt" viewBox="0 0 127.000000 37.000000"
 preserveAspectRatio="xMidYMid meet">

<g transform="translate(0.000000,37.000000) scale(0.100000,-0.100000)"
fill="#000000" stroke="none">
<path d="M103 349 c-22 -11 -54 -39 -70 -61 -23 -34 -28 -51 -28 -103 0 -78
33 -132 97 -164 54 -26 100 -26 154 -2 61 28 97 80 102 150 6 89 -32 153 -111
186 -50 21 -94 19 -144 -6z m67 -102 c0 -7 15 -19 33 -27 25 -12 33 -22 35
-48 5 -53 -44 -91 -84 -64 -34 23 -37 67 -9 150 6 15 25 7 25 -11z"/>
<path d="M157 180 c-7 -26 14 -53 36 -44 21 8 22 50 1 58 -25 10 -31 7 -37
-14z"/>
<path d="M1000 250 c0 -15 5 -20 18 -18 9 2 17 10 17 18 0 8 -8 16 -17 18 -13
2 -18 -3 -18 -18z"/>
<path d="M435 194 c-4 -37 -9 -73 -12 -80 -5 -13 55 -23 95 -16 29 6 48 48 31
68 -9 11 -8 18 1 28 6 8 10 25 8 38 -3 20 -9 23 -59 26 l-57 3 -7 -67z m85 22
c0 -8 -7 -17 -16 -20 -23 -9 -24 -8 -24 14 0 13 7 20 20 20 11 0 20 -6 20 -14z
m-10 -66 c0 -13 -7 -20 -20 -20 -13 0 -20 7 -20 20 0 13 7 20 20 20 13 0 20
-7 20 -20z"/>
<path d="M1065 248 c-2 -7 -8 -43 -13 -80 -8 -67 -8 -68 15 -68 16 0 23 6 23
20 0 11 4 20 9 20 5 0 13 -9 16 -20 4 -11 15 -20 26 -20 20 0 20 7 2 56 -2 6
3 17 12 24 21 17 19 30 -5 30 -10 0 -24 -9 -30 -20 -18 -34 -27 -22 -20 25 6
40 5 45 -12 45 -10 0 -20 -6 -23 -12z"/>
<path d="M607 209 c-23 -13 -39 -56 -31 -81 7 -24 48 -40 80 -32 36 9 30 34
-8 34 -25 0 -29 3 -18 10 8 5 25 10 37 10 13 0 24 8 29 22 12 38 -46 62 -89
37z m53 -28 c0 -5 -9 -11 -20 -14 -20 -5 -26 3 -13 16 9 10 33 8 33 -2z"/>
<path d="M726 204 c-25 -24 -17 -46 22 -58 32 -10 27 -26 -8 -26 -36 0 -40
-15 -5 -24 37 -9 73 3 81 27 7 21 -17 47 -43 47 -7 0 -13 5 -13 10 0 6 14 10
30 10 32 0 40 14 14 24 -28 11 -62 6 -78 -10z"/>
<path d="M910 210 c-8 -5 -25 -7 -37 -4 -23 6 -24 5 -37 -74 -5 -30 -4 -33 17
-30 17 2 23 11 27 38 3 23 11 36 24 38 16 3 17 -1 11 -37 -6 -37 -5 -41 14
-41 15 0 22 8 26 34 13 68 -6 101 -45 76z"/>
<path d="M986 173 c-10 -62 -8 -73 14 -73 12 0 20 7 20 18 0 9 3 34 6 55 6 32
4 37 -13 37 -16 0 -22 -9 -27 -37z"/>
<path d="M1220 134 c-11 -12 -10 -18 3 -32 15 -15 19 -15 32 -1 17 17 11 49
-10 49 -7 0 -18 -7 -25 -16z"/>
</g>
</svg>
